<?xml version='1.0' encoding='utf-8'?>
<svg xmlns="http://www.w3.org/2000/svg" width="210mm" height="297mm" viewBox="0 0 210 297" version="1.1" id="svg1386"> <defs id="defs1380"/> <metadata id="metadata1383"> </metadata> <g id="layer1"> <g id="g2194" transform="matrix(1,-0.06934693,-0.09137995,1.0063369,10.500308,-0.86722272)"> <path id="path2102" transform="scale(0.26458333)" d="m -157.00781,271.79883 c -34.40879,0 -62.5,28.09121 -62.5,62.5 v 12.5 h 100 v 187.5 c 0,34.40878 28.091213,62.5 62.499998,62.5 h 100 100.000002 c 34.40877,0 62.5,-28.09122 62.5,-62.5 h -12.5 -87.5 v -12.5 -187.5 c 0,-34.40879 -28.09122,-62.5 -62.500002,-62.5 h -100 z" style="color:#000000;font-style:normal;font-variant:normal;font-weight:normal;font-stretch:normal;font-size:medium;line-height:normal;font-family:sans-serif;font-variant-ligatures:normal;font-variant-position:normal;font-variant-caps:normal;font-variant-numeric:normal;font-variant-alternates:normal;font-feature-settings:normal;text-indent:0;text-align:start;text-decoration:none;text-decoration-line:none;text-decoration-style:solid;text-decoration-color:#000000;letter-spacing:normal;word-spacing:normal;text-transform:none;writing-mode:lr-tb;direction:ltr;text-orientation:mixed;dominant-baseline:auto;baseline-shift:baseline;text-anchor:start;white-space:normal;shape-padding:0;clip-rule:nonzero;display:inline;overflow:visible;visibility:visible;opacity:1;isolation:auto;mix-blend-mode:normal;color-interpolation:sRGB;color-interpolation-filters:linearRGB;solid-color:#000000;solid-opacity:1;vector-effect:none;fill:#26A69A;fill-opacity:1;fill-rule:nonzero;stroke:none;stroke-width:24.99999809;stroke-linecap:square;stroke-linejoin:miter;stroke-miterlimit:4;stroke-dasharray:none;stroke-dashoffset:0;stroke-opacity:1;color-rendering:auto;image-rendering:auto;shape-rendering:auto;text-rendering:auto;enable-background:accumulate"/> <path id="path2074" transform="scale(0.26458333)" d="m -157.00781,284.29883 c 27.7,0 50,22.3 50,50 v 200 c 0,27.7 22.299997,50 49.999998,50 16.446873,0 30.989852,-7.86114 40.091796,-20.04688 0.9581,-1.28271 1.856061,-2.61387 2.689454,-3.98828 4.5836574,-7.55924 7.2187495,-16.44297 7.2187495,-25.96484 H 92.992188 v -200 c -10e-7,-27.7 -22.300001,-50 -50,-50 h -100 z" style="opacity:1;fill:#ffffff;fill-opacity:1;stroke:none;stroke-width:20.00000191;stroke-linecap:square;stroke-linejoin:miter;stroke-miterlimit:4;stroke-dasharray:none;stroke-dashoffset:0;stroke-opacity:0.94117647"/> <g id="g2124"> <rect style="opacity:1;fill:#26A69A;fill-opacity:1;stroke:none;stroke-width:6.61458302;stroke-linecap:square;stroke-linejoin:miter;stroke-miterlimit:4;stroke-dasharray:none;stroke-dashoffset:0;stroke-opacity:1" id="rect2112" width="36.014565" height="2.0579724" x="-14.405828" y="89.705742"/> <path style="opacity:1;fill:#37c837;fill-opacity:1;stroke:none;stroke-width:6.61458206;stroke-linecap:square;stroke-linejoin:miter;stroke-miterlimit:4;stroke-dasharray:none;stroke-dashoffset:0;stroke-opacity:1" d="m -18.43699,87.338211 -3.945551,3.945551 -2.056597,-2.056598 -1.423743,1.423743 3.48034,3.480338 5.369293,-5.369291 z" id="rect2114"/> </g> <g id="g2171"> <g id="g2136" transform="translate(0,10.38346)"> <rect y="89.705742" x="-14.405828" height="2.0579724" width="36.014565" id="rect2132" style="opacity:1;fill:#26A69A;fill-opacity:1;stroke:none;stroke-width:6.61458302;stroke-linecap:square;stroke-linejoin:miter;stroke-miterlimit:4;stroke-dasharray:none;stroke-dashoffset:0;stroke-opacity:1"/> <path id="path2134" d="m -18.43699,87.338211 -3.945551,3.945551 -2.056597,-2.056598 -1.423743,1.423743 3.48034,3.480338 5.369293,-5.369291 z" style="opacity:1;fill:#37c837;fill-opacity:1;stroke:none;stroke-width:6.61458206;stroke-linecap:square;stroke-linejoin:miter;stroke-miterlimit:4;stroke-dasharray:none;stroke-dashoffset:0;stroke-opacity:1"/> </g> <g id="g2142" transform="translate(0,20.76687)"> <rect y="89.705742" x="-14.405828" height="2.0579724" width="36.014565" id="rect2138" style="opacity:1;fill:#26A69A;fill-opacity:1;stroke:none;stroke-width:6.61458302;stroke-linecap:square;stroke-linejoin:miter;stroke-miterlimit:4;stroke-dasharray:none;stroke-dashoffset:0;stroke-opacity:1"/> <path id="path2140" d="m -18.43699,87.338211 -3.945551,3.945551 -2.056597,-2.056598 -1.423743,1.423743 3.48034,3.480338 5.369293,-5.369291 z" style="opacity:1;fill:#37c837;fill-opacity:1;stroke:none;stroke-width:6.61458206;stroke-linecap:square;stroke-linejoin:miter;stroke-miterlimit:4;stroke-dasharray:none;stroke-dashoffset:0;stroke-opacity:1"/> </g> <g id="g2148" transform="translate(0,31.15028)"> <rect y="89.705742" x="-14.405828" height="2.0579724" width="36.014565" id="rect2144" style="opacity:1;fill:#26A69A;fill-opacity:1;stroke:none;stroke-width:6.61458302;stroke-linecap:square;stroke-linejoin:miter;stroke-miterlimit:4;stroke-dasharray:none;stroke-dashoffset:0;stroke-opacity:1"/> <path id="path2146" d="m -18.43699,87.338211 -3.945551,3.945551 -2.056597,-2.056598 -1.423743,1.423743 3.48034,3.480338 5.369293,-5.369291 z" style="opacity:1;fill:#37c837;fill-opacity:1;stroke:none;stroke-width:6.61458206;stroke-linecap:square;stroke-linejoin:miter;stroke-miterlimit:4;stroke-dasharray:none;stroke-dashoffset:0;stroke-opacity:1"/> </g> <g id="g2154" transform="translate(0,41.53369)"> <rect y="89.705742" x="-14.405828" height="2.0579724" width="36.014565" id="rect2150" style="opacity:1;fill:#26A69A;fill-opacity:1;stroke:none;stroke-width:6.61458302;stroke-linecap:square;stroke-linejoin:miter;stroke-miterlimit:4;stroke-dasharray:none;stroke-dashoffset:0;stroke-opacity:1"/> <path id="path2152" d="m -18.43699,87.338211 -3.945551,3.945551 -2.056597,-2.056598 -1.423743,1.423743 3.48034,3.480338 5.369293,-5.369291 z" style="opacity:1;fill:#37c837;fill-opacity:1;stroke:none;stroke-width:6.61458206;stroke-linecap:square;stroke-linejoin:miter;stroke-miterlimit:4;stroke-dasharray:none;stroke-dashoffset:0;stroke-opacity:1"/> </g> <g id="g2130" transform="translate(0,4.9624633e-5)"> <rect style="opacity:1;fill:#26A69A;fill-opacity:1;stroke:none;stroke-width:6.61458302;stroke-linecap:square;stroke-linejoin:miter;stroke-miterlimit:4;stroke-dasharray:none;stroke-dashoffset:0;stroke-opacity:1" id="rect2126" width="36.014565" height="2.0579724" x="-14.405828" y="89.705742"/> <path style="opacity:1;fill:#37c837;fill-opacity:1;stroke:none;stroke-width:6.61458206;stroke-linecap:square;stroke-linejoin:miter;stroke-miterlimit:4;stroke-dasharray:none;stroke-dashoffset:0;stroke-opacity:1" d="m -18.43699,87.338211 -3.945551,3.945551 -2.056597,-2.056598 -1.423743,1.423743 3.48034,3.480338 5.369293,-5.369291 z" id="path2128"/> </g> </g> </g> </g> </svg>