<?xml version="1.0" encoding="UTF-8" standalone="no"?>
<!-- Created with Inkscape (http://www.inkscape.org/) -->

<svg
   xmlns:dc="http://purl.org/dc/elements/1.1/"
   xmlns:cc="http://creativecommons.org/ns#"
   xmlns:rdf="http://www.w3.org/1999/02/22-rdf-syntax-ns#"
   xmlns:svg="http://www.w3.org/2000/svg"
   xmlns="http://www.w3.org/2000/svg"
   xmlns:sodipodi="http://sodipodi.sourceforge.net/DTD/sodipodi-0.dtd"
   xmlns:inkscape="http://www.inkscape.org/namespaces/inkscape"
   width="1600mm"
   height="1600mm"
   viewBox="0 0 1600 1600"
   version="1.1"
   id="svg8"
   inkscape:version="0.92.4 (5da689c313, 2019-01-14)"
   sodipodi:docname="Earth vintage.svg">
  <defs
     id="defs2" />
  <sodipodi:namedview
     id="base"
     pagecolor="#ffffff"
     bordercolor="#666666"
     borderopacity="1.0"
     inkscape:pageopacity="0.0"
     inkscape:pageshadow="2"
     inkscape:zoom="0.044194174"
     inkscape:cx="1740.2995"
     inkscape:cy="3595.13"
     inkscape:document-units="mm"
     inkscape:current-layer="g1489"
     showgrid="false"
     inkscape:pagecheckerboard="false"
     showborder="true"
     inkscape:window-width="1366"
     inkscape:window-height="716"
     inkscape:window-x="-8"
     inkscape:window-y="-8"
     inkscape:window-maximized="1"
     inkscape:object-paths="true" />
  <metadata
     id="metadata5">
    <rdf:RDF>
      <cc:Work
         rdf:about="">
        <dc:format>image/svg+xml</dc:format>
        <dc:type
           rdf:resource="http://purl.org/dc/dcmitype/StillImage" />
        <dc:title></dc:title>
      </cc:Work>
    </rdf:RDF>
  </metadata>
  <g
     inkscape:label="Layer 1"
     inkscape:groupmode="layer"
     id="layer1"
     transform="translate(0,1303)">
    <g
       transform="matrix(17.25927,0,0,17.192592,-13289.273,-4953.7259)"
       id="g1489"
       inkscape:export-filename="C:\Users\GEO\Poliglota institut\HTML i CSS\HTML vjezbe\zemlja.png"
       inkscape:export-xdpi="96"
       inkscape:export-ydpi="96">
      <path
         d="m 816.27521,303.7754 a 44.512184,44.512184 0 0 1 -44.51219,-44.50321 44.512184,44.512184 0 0 1 44.49424,-44.52116 44.512184,44.512184 0 0 1 44.53012,44.48527 44.512184,44.512184 0 0 1 -44.47628,44.53908"
         sodipodi:open="true"
         sodipodi:end="1.56999"
         sodipodi:start="1.5707963"
         sodipodi:ry="44.512184"
         sodipodi:rx="44.512184"
         sodipodi:cy="259.26321"
         sodipodi:cx="816.27521"
         sodipodi:type="arc"
         id="path1423"
         style="opacity:1;fill:#ffe98b;fill-opacity:1;fill-rule:evenodd;stroke:none;stroke-width:2.84841943;stroke-linecap:square;stroke-linejoin:miter;stroke-miterlimit:4;stroke-dasharray:none;stroke-dashoffset:0;stroke-opacity:1;paint-order:fill markers stroke" />
      <path
         id="path1427"
         d="m 771.75928,260.06002 a 44.512182,44.512182 0 0 0 8.31661,25.09502 c 0.0395,-0.13561 0.0661,-0.27497 0.079,-0.41558 0.0272,-0.29752 -8.6e-4,-0.59854 -0.0606,-0.89125 -0.11976,-0.58539 -0.36418,-1.1366 -0.55801,-1.70181 -0.63999,-1.86632 -0.72199,-3.90067 -0.37941,-5.84371 0.19899,-1.1287 0.53682,-2.22833 0.77108,-3.35023 0.23425,-1.12191 0.36349,-2.28785 0.14019,-3.41199 -0.21717,-1.09324 -0.76088,-2.10112 -1.43811,-2.98639 -0.67726,-0.88526 -1.48768,-1.65862 -2.30322,-2.41838 -1.49324,-1.39107 -3.01667,-2.7491 -4.5675,-4.07568 z"
         style="fill:#a0892c;fill-opacity:1;stroke:none;stroke-width:0.28484192px;stroke-linecap:butt;stroke-linejoin:miter;stroke-opacity:1"
         inkscape:connector-curvature="0" />
      <path
         style="fill:#a0892c;fill-opacity:1;stroke:none;stroke-width:0.33854887px;stroke-linecap:butt;stroke-linejoin:miter;stroke-opacity:1"
         d="m 796.00688,241.9249 c -1.35727,0.84493 -3.62522,3.97321 -3.62522,3.97321 -1.32235,2.91849 -2.36441,10.04239 -0.71635,12.78724 1.79433,8.45038 11.56124,5.35816 14.78615,8.45981 1.66133,2.01622 1.68157,5.04202 1.80682,7.7047 0.12525,2.66267 0.063,5.36255 0.69342,7.95134 0.68601,2.81711 2.25639,5.48256 4.64481,7.10003 1.19421,0.80875 2.57762,1.34341 4.00878,1.49105 1.43114,0.14763 2.90772,-0.0984 4.19183,-0.75228 1.28671,-0.65524 2.35347,-1.70068 3.16964,-2.89863 0.81616,-1.19796 1.39271,-2.54704 1.84653,-3.92648 0.90764,-2.75884 1.34648,-5.67709 2.51144,-8.33589 2.1151,-4.82737 6.36242,-8.28435 9.99073,-12.0883 0.54668,-0.57316 1.09508,-1.17904 1.3653,-1.92606 0.13509,-0.37351 0.1959,-0.77854 0.14094,-1.17224 -0.0549,-0.39369 -0.23044,-0.77492 -0.51794,-1.04704 -0.34207,-0.32377 -0.82226,-0.47441 -1.29145,-0.47355 -0.46918,8.5e-4 -0.92915,0.14258 -1.35476,0.34165 -0.85122,0.39817 -1.59213,1.02693 -2.47979,1.33373 -0.60189,0.20802 -1.25374,0.25842 -1.88385,0.16942 -0.63013,-0.089 -1.2384,-0.31552 -1.78737,-0.63983 -1.09793,-0.64862 -1.94192,-1.67409 -2.54623,-2.80315 -1.20862,-2.2581 -1.50197,-4.88891 -2.36563,-7.30253 -0.73893,-2.06511 -1.90995,-3.98121 -3.46476,-5.51829 -1.55481,-1.53707 -3.49665,-2.6875 -5.60636,-3.23141 -2.4504,-0.63173 -2.17804,2.14762 -4.69532,2.39552 -2.51726,0.24788 -8.86883,0.0903 -11.3624,-0.33645 -0.74688,-0.15824 -0.31198,-2.01271 -1.64837,-2.38522"
         id="path1437"
         inkscape:connector-curvature="0"
         sodipodi:nodetypes="ccccsscscsccccccccccccccsccc" />
      <path
         style="fill:#a0892c;fill-opacity:1;stroke:none;stroke-width:0.28484192px;stroke-linecap:butt;stroke-linejoin:miter;stroke-opacity:1"
         d="m 835.32226,276.01248 c -0.55509,0.98135 -1.45649,1.63919 -2.32036,2.36131 -1.01132,0.84537 0.0769,2.70004 -0.99603,3.37966 -1.19177,0.75491 -2.6484,1.78152 -2.74799,3.19159 -0.0606,0.85889 -0.23927,2.44299 0.90384,2.52832 1.42156,0.10615 1.9477,-1.45741 2.4986,-2.47375 0.51066,-0.94209 1.48108,-1.46464 2.04763,-2.3444 0.96587,-1.49986 2.00821,-3.18104 1.95111,-4.94169 -0.0236,-0.72703 -0.01,-3.16543 -1.14044,-1.89995 0,0 -0.11054,0.11187 -0.11054,0.11187 0,0 -0.0858,0.087 -0.0858,0.087 0,0 0,0 0,0 z"
         id="path1442"
         inkscape:connector-curvature="0" />
      <path
         inkscape:connector-curvature="0"
         style="fill:#a0892c;fill-opacity:1;stroke:none;stroke-width:0.28484192px;stroke-linecap:butt;stroke-linejoin:miter;stroke-opacity:1"
         d="m 816.37694,214.75114 a 44.512182,44.512182 0 0 0 -2.42393,0.0868 c -0.78659,0.43553 -1.51037,1.0459 -2.1469,1.90042 -3.26945,4.38926 2.74554,2.18847 4.50518,1.2473 4.26992,-2.28382 1.55131,-0.72877 4.69767,0.87567 4.49277,2.29103 -9.2662,3.54655 -13.31414,4.35441 -3.99805,0.7979 -1.97047,7.88013 -6.91075,7.93719 -8.76637,0.1012 3.4909,9.99827 5.50101,2.93966 -0.0801,0.0558 2.84406,1.32288 3.34022,2.51183 2.36829,5.67524 5.3692,2.84389 1.87539,0.26871 -3.86931,-2.85193 0.0108,-5.69588 1.99111,-1.77247 2.65204,5.25277 0.19369,-4.50036 3.77471,-2.43006 4.38558,2.53545 -0.0547,1.65981 -1.17719,3.62673 -0.89032,1.56008 12.11245,0.26363 6.3088,2.87624 -3.14775,1.41701 5.73526,5.60564 6.46902,9.34359 1.14261,5.8206 6.67771,6.47046 11.6101,3.94995 6.45751,-3.29986 -1.39936,-6.95595 -5.18891,-8.70715 -4.56078,-2.1076 0.23744,-2.00314 2.39556,-0.42281 5.50205,4.02897 9.63205,3.97713 12.30774,8.8824 2.75667,5.0537 4.62091,4.43399 4.81339,-0.54354 0.13641,-3.52775 -3.0056,-12.07385 1.83311,-8.31883 0.66132,0.51322 1.19325,0.79782 1.61448,0.89403 a 44.512182,44.512182 0 0 0 -41.87567,-29.50004 z"
         id="path1444" />
      <path
         inkscape:connector-curvature="0"
         id="path1450"
         d="m 805.08579,218.2868 c -0.46746,-0.0141 -1.00898,0.11572 -1.01308,0.50459 -0.14004,0.12545 -0.22023,0.31005 -0.23644,0.49736 -0.0163,0.18732 0.0285,0.37672 0.10848,0.54688 0.002,0.004 0.004,0.008 0.006,0.0117 -0.0722,0.57884 -0.38284,1.1274 -0.85008,1.47818 -0.22458,0.16859 -0.47932,0.29152 -0.72546,0.4267 -0.24614,0.13518 -0.48917,0.28681 -0.67372,0.49848 -0.16221,0.18605 -0.2753,0.42056 -0.28873,0.66704 -0.006,0.12323 0.0116,0.24808 0.0573,0.36273 0.0458,0.11465 0.11893,0.2186 0.2142,0.29707 0.0985,0.0812 0.21887,0.13378 0.34325,0.16245 0.12437,0.0286 0.25307,0.0343 0.38053,0.0278 0.25494,-0.013 0.50559,-0.0733 0.76051,-0.0868 0.26244,-0.0138 0.52566,0.0225 0.78832,0.0139 0.13133,-0.004 0.26305,-0.02 0.38888,-0.0578 0.12582,-0.0379 0.24548,-0.0992 0.34325,-0.18694 0.11712,-0.10518 0.19904,-0.246 0.24646,-0.3961 0.0474,-0.15008 0.0619,-0.30887 0.0578,-0.46621 -0.009,-0.31469 -0.0895,-0.62325 -0.11683,-0.93686 -0.0457,-0.52405 0.0635,-1.06415 0.33102,-1.51712 0.15593,-0.26404 0.36661,-0.50506 0.44006,-0.80279 0.0124,-0.05 0.0182,-0.1013 0.0211,-0.15299 0.0445,-0.0674 0.0795,-0.14071 0.0868,-0.22087 0.0108,-0.11174 -0.0272,-0.2277 -0.1013,-0.31209 0.29171,-0.18613 -0.10163,-0.34417 -0.56913,-0.35828 z m -3.58946,1.78082 c -0.15652,-0.005 -0.31414,0.0242 -0.45731,0.0879 -0.19087,0.0848 -0.35467,0.22965 -0.46286,0.40834 -0.10507,0.17347 -0.15633,0.37303 -0.2242,0.56412 -0.0745,0.20988 -0.17194,0.41993 -0.16579,0.64256 0.003,0.11133 0.0336,0.22391 0.10012,0.31322 0.0333,0.0447 0.0757,0.0831 0.12406,0.11071 0.0485,0.0276 0.10292,0.0438 0.15856,0.0456 0.0627,0.002 0.12498,-0.0144 0.18136,-0.0418 0.0564,-0.0273 0.10755,-0.0653 0.15411,-0.10734 0.0931,-0.084 0.17026,-0.18455 0.26703,-0.26425 0.17184,-0.1415 0.39434,-0.20974 0.56858,-0.34827 0.20336,-0.1617 0.32843,-0.41891 0.32545,-0.67872 -0.002,-0.14372 -0.0409,-0.28727 -0.11294,-0.41168 -0.072,-0.12442 -0.17664,-0.2296 -0.30041,-0.30265 -0.0513,-0.01 -0.10357,-0.0159 -0.15578,-0.0178 z"
         style="fill:#a0892c;fill-opacity:1;stroke:none;stroke-width:0.28484192px;stroke-linecap:butt;stroke-linejoin:miter;stroke-opacity:1" />
      <path
         id="path1454"
         d="m 805.76014,218.48375 c -0.0194,-0.002 -0.0388,0.001 -0.0571,-0.002 l 0.12844,0.0429 c -0.0215,-0.0172 -0.0474,-0.0277 -0.0711,-0.0406 z"
         style="fill:#00d400;fill-opacity:1;stroke:none;stroke-width:0.28484192px;stroke-linecap:butt;stroke-linejoin:miter;stroke-opacity:1"
         inkscape:connector-curvature="0"
         inkscape:export-filename="C:\Users\GEO\Desktop\logo gradijent.png"
         inkscape:export-xdpi="96"
         inkscape:export-ydpi="96" />
      <path
         id="path1462"
         d="m 780.97938,232.23348 a 44.512182,44.512182 0 0 0 -9.21618,27.03886 44.512182,44.512182 0 0 0 44.5121,44.5032 h 0.0355 a 44.512182,44.512182 0 0 0 21.2324,-5.4604 50.209025,50.209025 0 0 1 -9.26398,0.90293 h -0.0409 a 50.209025,50.209025 0 0 1 -50.20908,-50.19893 50.209025,50.209025 0 0 1 2.94969,-16.78566 z"
         style="opacity:0.075;fill:#000000;fill-opacity:1;fill-rule:evenodd;stroke:none;stroke-width:2.84841943;stroke-linecap:square;stroke-linejoin:miter;stroke-miterlimit:4;stroke-dasharray:none;stroke-dashoffset:0;stroke-opacity:1;paint-order:fill markers stroke"
         inkscape:connector-curvature="0"
         inkscape:export-filename="C:\Users\GEO\Desktop\logo gradijent.png"
         inkscape:export-xdpi="96"
         inkscape:export-ydpi="96" />
    </g>
  </g>
</svg>
