<?xml version="1.0" encoding="UTF-8"?>
<!DOCTYPE svg PUBLIC "-//W3C//DTD SVG 1.1//EN" "http://www.w3.org/Graphics/SVG/1.1/DTD/svg11.dtd">
<!-- Creator: CorelDRAW 2019 (64-Bit) -->
<svg xmlns="http://www.w3.org/2000/svg" xml:space="preserve" width="210mm" height="297mm" version="1.1" style="shape-rendering:geometricPrecision; text-rendering:geometricPrecision; image-rendering:optimizeQuality; fill-rule:evenodd; clip-rule:evenodd"
viewBox="0 0 21000 29700"
 xmlns:xlink="http://www.w3.org/1999/xlink"
 xmlns:xodm="http://www.corel.com/coreldraw/odm/2003">
 <defs>
  <style type="text/css">
   <![CDATA[
    .fil3 {fill:#FEFEFE}
    .fil1 {fill:#86776F}
    .fil6 {fill:#DFA865}
    .fil5 {fill:#E0A966}
    .fil4 {fill:#E1AA69}
    .fil2 {fill:#EFB76A}
    .fil0 {fill:#FCC779}
   ]]>
  </style>
 </defs>
 <g id="Warstwa_x0020_1">
  <metadata id="CorelCorpID_0Corel-Layer"/>
  <path class="fil0" d="M15697.48 4874.52c6684.76,12593.86 1860.37,20024.22 -4750.2,20081.97 2998.93,-29.3 5472.61,-1741.3 5472.61,-2956.8 0,-1226.02 -446.46,-4781.51 -5519.94,-4791.03 -5073.49,-9.52 -5466.95,3565.01 -5466.95,4791.03 0,735.38 864.51,1652.54 2211.1,2268.86 -4779.55,-2156.56 -7589.19,-9231.47 -2162.06,-19138.31 476.21,-869.33 2625.1,2009.49 4902.42,2130.46 2300.02,122.17 5067.98,-2847.86 5313.02,-2386.18zm-4863.2 20082.37c-30.76,0.15 -61.36,0.75 -92.22,0.3 -44.73,-0.65 -89.21,-3.05 -133.84,-4.46 74.93,2.46 150.32,3.81 226.06,4.16zm-260.17 -5.26c-489.69,-17.38 -972.71,-80.09 -1444.42,-186.49 456.28,102.14 940.55,167.86 1444.42,186.49zm-1478.63 -194.25c-64.97,-14.98 -129.79,-30.5 -194.35,-47.13 64.21,16.43 128.98,32.2 194.35,47.13z"/>
  <path class="fil1" d="M12864.7 24264.59c475.77,0 861.46,394.61 861.46,881.34 0,45.49 -3.35,90.12 -9.86,133.7l26.29 0 -147.91 221.2 -147.87 221.15 -147.92 -221.15 -142.96 -213.89 -146.21 213.89 -151.28 221.15 -151.22 -221.15 -140.1 -204.87 -133.95 204.87 -144.61 221.15 -144.61 -221.15 -144.61 -221.2 13.77 0c-6.51,-43.58 -9.87,-88.21 -9.87,-133.7 0,-486.73 385.7,-881.34 861.46,-881.34z"/>
  <path class="fil1" d="M8496.04 24138.01c475.77,0 861.46,394.61 861.46,881.35 0,45.48 -3.35,90.11 -9.86,133.69l26.29 0 -147.91 221.2 -147.87 221.15 -147.92 -221.15 -142.96 -213.89 -146.21 213.89 -151.28 221.15 -151.22 -221.15 -140.11 -204.87 -133.94 204.87 -144.61 221.15 -144.61 -221.15 -144.61 -221.2 13.77 0c-6.51,-43.58 -9.87,-88.21 -9.87,-133.69 0,-486.74 385.7,-881.35 861.46,-881.35z"/>
  <path class="fil2" d="M10899.95 17208.66c5073.48,9.52 5519.94,3565.01 5519.94,4791.03 0,1226.02 -2516.65,2957.5 -5550.6,2957.5 -3033.94,0 -5436.29,-1731.48 -5436.29,-2957.5 0,-1226.02 393.46,-4800.55 5466.95,-4791.03z"/>
  <path class="fil3" d="M7184.42 8476.3c1709.04,0 3128.11,1240.64 3406.37,2870.34 255.06,-1657.05 1687.15,-2926.04 3415.63,-2926.04 1908.71,0 3456.06,1547.35 3456.06,3456.05 0,1908.71 -1547.35,3456.06 -3456.06,3456.06 -1709.04,0 -3128.11,-1240.64 -3406.37,-2870.34 -255.06,1657.05 -1687.15,2926.04 -3415.63,2926.04 -1908.71,0 -3456.06,-1547.35 -3456.06,-3456.05 0,-1908.71 1547.35,-3456.06 3456.06,-3456.06z"/>
  <polygon class="fil1" points="9641.07,13569.37 10596.35,12481.95 11588.44,13568.02 10566.89,15006.72 "/>
  <path class="fil1" d="M7135.13 11193.12c709.98,0 1285.53,534.01 1285.53,1192.76 0,658.74 -602.04,-689.2 -1312.03,-689.2 -709.98,0 -1259.03,1347.94 -1259.03,689.2 0,-658.75 575.54,-1192.76 1285.53,-1192.76z"/>
  <path class="fil1" d="M14135.01 11149.14c709.98,0 1285.52,534.01 1285.52,1192.76 0,658.74 -602.04,-689.2 -1312.02,-689.2 -709.99,0 -1259.03,1347.94 -1259.03,689.2 0,-658.75 575.54,-1192.76 1285.53,-1192.76z"/>
  <path class="fil4" d="M3928.25 17937.19l1859.48 1593.04c-15.74,19.28 -25.9,47.27 -25.9,85.33 0,19.24 -25.15,49.31 -43.18,107.43 -0.95,3.06 -1.8,6.07 -2.61,9.07l-1936.31 -1658.86 148.52 -136.01zm2028.89 1738.17l320.89 274.91 -148.52 136.01 -249.07 -213.38c39.98,-39.69 18.41,-70.85 43.34,-122.42 16.07,-33.24 27.44,-47.55 33.36,-75.12z"/>
  <path class="fil5" d="M5662.46 17117.45c0,634.69 749.96,5725.01 -69.72,5576.19 -775.01,-140.7 -1983.95,-2127.65 -2620.75,-4089.3 -756.92,-2331.47 -398.52,-3555.99 -431.88,-4170.86 -64.47,-1186.84 3122.35,1273.81 3122.35,2683.97z"/>
  <rect class="fil4" transform="matrix(3.12263 -2.5517 -1.74417 -2.75642 6117.37 20081.2)" width="767.29" height="61.74"/>
  <rect class="fil4" transform="matrix(3.06244 2.62363 2.40559 -2.20298 8252.71 18128.4)" width="767.29" height="61.74"/>
  <rect class="fil4" transform="matrix(3.12263 -2.5517 -1.74417 -2.75642 10590.4 20136.4)" width="767.29" height="61.74"/>
  <rect class="fil4" transform="matrix(3.06244 2.62363 2.40559 -2.20298 12669.2 18187.2)" width="767.29" height="61.74"/>
  <path class="fil4" d="M14899.2 20025.05l809.1 -661.16c1.48,3.9 3.18,7.74 5.13,11.51 8.15,20.8 17.98,37.82 28.88,51.52 2.87,18.7 11.08,36.85 24.88,52.03 6.88,8.76 18.95,37.67 39.18,62.97l-799.49 653.31 -107.68 -170.18zm1031.57 -661.83c-2.82,-20.32 -12.2,-42 -30.13,-63.73 -0.03,-0.04 -14.21,-34.62 -42.9,-57.73l1437.42 -1174.6 107.68 170.18 -1439.52 1176.32c-8.88,-17.15 -19.84,-34.72 -32.55,-50.44z"/>
  <rect class="fil4" transform="matrix(3.06244 2.62363 2.40559 -2.20298 3647.17 19398.5)" width="767.29" height="61.74"/>
  <rect class="fil4" transform="matrix(3.12263 -2.5517 -1.74417 -2.75642 5984.83 21406.5)" width="767.29" height="61.74"/>
  <rect class="fil4" transform="matrix(3.06244 2.62363 2.40559 -2.20298 8120.17 19453.7)" width="767.29" height="61.74"/>
  <rect class="fil4" transform="matrix(3.12263 -2.5517 -1.74417 -2.75642 10457.8 21461.7)" width="767.29" height="61.74"/>
  <rect class="fil4" transform="matrix(3.06244 2.62363 2.40559 -2.20298 12536.7 19512.5)" width="767.29" height="61.74"/>
  <rect class="fil4" transform="matrix(3.12263 -2.5517 -1.74417 -2.75642 14874.3 21520.5)" width="767.29" height="61.74"/>
  <rect class="fil4" transform="matrix(3.06244 2.62363 2.40559 -2.20298 3868.37 20744.3)" width="767.29" height="61.74"/>
  <rect class="fil4" transform="matrix(3.12263 -2.5517 -1.74417 -2.75642 6206.03 22752.3)" width="767.29" height="61.74"/>
  <rect class="fil4" transform="matrix(3.06244 2.62363 2.40559 -2.20298 8341.37 20799.5)" width="767.29" height="61.74"/>
  <rect class="fil4" transform="matrix(3.12263 -2.5517 -1.74417 -2.75642 10679 22807.5)" width="767.29" height="61.74"/>
  <path class="fil6" d="M16662.95 22493.08c-400.75,-41.49 -910.03,-1425.52 -907.51,-3841.93 1.6,-1509.07 -61.64,-1774.25 522.54,-2595.59 722.32,-1015.57 2321.51,-2431.21 2588.23,-1746.94 5.19,13.42 306.15,2530.19 -345.38,4648.78 -591.17,1922.46 -1823.18,3539.23 -1857.88,3535.68z"/>
  <rect class="fil4" transform="matrix(3.06244 2.62363 2.40559 -2.20298 12757.9 20858.3)" width="767.29" height="61.74"/>
  <rect class="fil4" transform="matrix(3.12263 -2.5517 -1.74417 -2.75642 15095.5 22866.3)" width="767.29" height="61.74"/>
  <path class="fil4" d="M6412.32 23516.63l2182.1 -1783.13 107.65 170.16 -2126.35 1737.6c-46.39,-54.7 -102.19,-95.97 -163.4,-124.63z"/>
  <rect class="fil4" transform="matrix(3.06244 2.62363 2.40559 -2.20298 8441.46 21908.8)" width="767.29" height="61.74"/>
  <rect class="fil4" transform="matrix(3.12263 -2.5517 -1.74417 -2.75642 10779.1 23916.8)" width="767.29" height="61.74"/>
  <path class="fil4" d="M13006.51 21831.63l2161.87 1852.11c-60.41,30.2 -114.96,72.68 -158.94,127.08l-2151.45 -1843.19 148.52 -136z"/>
  <path class="fil4" d="M7507.1 24183.89l1044.89 -853.84 107.65 170.15 -966.85 790.08c-32.41,-22.74 -67.92,-41.67 -106.09,-56 -24.8,-19.18 -51.45,-36.06 -79.6,-50.39z"/>
  <path class="fil4" d="M8547.59 23369.32l1824 1562.68c-89.61,-10.97 -180.23,-13.78 -270.19,-5.91 -17.08,-2.31 -33.71,-4.01 -50.09,-5.26l-1652.24 -1415.52 148.52 -135.99z"/>
  <path class="fil4" d="M11129.06 24934.55l1895.94 -1549.3 107.64 170.15 -1690.91 1381.76c-29.1,-0.55 -58.51,0.45 -87.96,2.75 -72.98,-14.98 -149.62,-16.38 -224.71,-5.36z"/>
  <path class="fil4" d="M12964.08 23428.17l1040.79 891.67c-72.13,17.78 -137.65,51.54 -194.5,96.57l-994.8 -852.24 148.51 -136z"/>
 </g>
</svg>
