<?xml version="1.0" encoding="UTF-8"?>
<svg viewBox="0 0 256 256" xmlns="http://www.w3.org/2000/svg">
 <g transform="matrix(1.2311 0 0 1.2311 66.255 -1090.7)">
  <path d="m89.471 1065.9c3.7268 6.1263-0.48379 10.049-6.16 12.947-8.0302 4.0988-27.898 2.1018-34.7-2.0137-6.2427-3.777-9.0128-9.3495-6.0403-14.184" fill="#80CBC4" stroke="#004D40" stroke-linecap="round" stroke-linejoin="round" stroke-width="4.0614"/>
  <path d="m-3.2128 1024.9c-5.6068 10.647 16.858 15.223 23.302 16.037 7.7428 0.9779 19.2 22.194 32.629 26.175 9.1014 2.6984 29.326 3.8464 36.494-1.431 12.273-9.0365 18.48-20.686 21.285-35.088 0.99446-5.1051 1.707-10.986 0.95737-15.702-3.1898-20.064-14.951-20.048-19.514-20.76-2.7272-8.7246-12.699-15.044-26.068-12.391-0.10291-10.746 0.22553-17.365 1.1122-27.536 1.4832-17.013-28.072-12.04-27.471 15.265 0.30164 13.708 6.2504 36.765-1.6112 54.848-15.641-13.196-30.953-18.718-41.116 0.58252z" fill="#80CBC4" stroke="#004D40" stroke-linecap="round" stroke-linejoin="round" stroke-width="4.0614"/>
  <path d="m63.838 981.04c0.0308 10.253 1.2148 18.225 7.2258 26.105-2.5091-6.5752-3.3692-19.666-3.1766-27.939l-4.0493 1.8332z"/>
  <path d="m93.471 992.23-3.8091 1.4863c1.929 5.5768 4.0509 11.842 7.1137 15.183-1.0804-2.6051-2.0771-11.978-3.3046-16.669z"/>
  <path d="m83.386 1059c4.9386-9.2507 5.1428-12.031 6.8258-16.832" fill="none" stroke="#004D40" stroke-linecap="round" stroke-linejoin="round" stroke-width="4.0614"/>
  <path d="m73.981 1058.8c2.7752-11.262 3.048-16.939 4.2136-24.609" fill="none" stroke="#004D40" stroke-linecap="round" stroke-linejoin="round" stroke-width="4.0614"/>
  <path d="m62.763 1058.3c0.85519-7.9352 0.52099-11.757 0.55553-16.855" fill="none" stroke="#004D40" stroke-linecap="round" stroke-linejoin="round" stroke-width="4.0614"/>
 </g>
</svg>
