<?xml version="1.0" encoding="UTF-8"?>
<svg viewBox="0 0 444.56464 589.40979" xmlns="http://www.w3.org/2000/svg" xmlns:xlink="http://www.w3.org/1999/xlink">
 <defs>
  <filter id="c">
   <feGaussianBlur stdDeviation="4.7393"/>
  </filter>
  <linearGradient id="a">
   <stop stop-color="#fff" offset="0"/>
   <stop stop-color="#fff" stop-opacity="0" offset="1"/>
  </linearGradient>
  <linearGradient id="b">
   <stop stop-color="#00897B" offset="0"/>
   <stop stop-color="#00BFA5" offset=".5"/>
   <stop stop-color="#f0f8f6" offset="1"/>
  </linearGradient>
  <linearGradient id="g" x2="0" y1="739.6" y2="282.86" gradientUnits="userSpaceOnUse" xlink:href="#b"/>
  <linearGradient id="f" x2="0" y1="203.65" y2="670.71" gradientUnits="userSpaceOnUse" xlink:href="#b"/>
  <radialGradient id="e" cx="776.6" cy="565.5" r="151.52" gradientTransform="matrix(-.54245 -2.2086 1.5047 -.36958 342.96 2516.1)" gradientUnits="userSpaceOnUse" xlink:href="#a"/>
  <radialGradient id="d" cx="776.6" cy="539.07" r="151.52" gradientTransform="matrix(-.54245 -2.2086 1.5047 -.36958 382.72 2506.3)" gradientUnits="userSpaceOnUse" xlink:href="#a"/>
 </defs>
 <g transform="translate(-533.58 -187.89)" fill-rule="evenodd">
  <g transform="translate(2,8)">
   <path d="m713.47 204.89v74.226c-91.82 18.86-161.51 100.64-161.51 197.79 0 96.668 69.012 178.12 160.15 197.51l-67.008-67.008 41.058-41.058c-26.951-20.333-44.214-52.667-44.214-89.444 0-48.051 29.471-88.501 71.524-104.52v115.53l141.52-141.52-141.52-141.52z" filter="url(#c)" opacity=".32"/>
   <path d="m795.61 279.41 67.008 66.993-41.074 41.074c26.961 20.328 44.23 52.647 44.23 89.428 0 48.051-29.47 88.512-71.524 104.54v-115.55l-141.52 141.52 141.52 141.52v-74.226c91.812-18.87 161.51-100.65 161.51-197.79 0-96.667-69.01-178.1-160.15-197.49z" filter="url(#c)" opacity=".32"/>
  </g>
  <path d="m713.47 204.89v74.226c-91.82 18.86-161.51 100.64-161.51 197.79 0 96.668 69.012 178.12 160.15 197.51l-67.008-67.008 41.058-41.058c-26.951-20.333-44.214-52.667-44.214-89.444 0-48.051 29.471-88.501 71.524-104.52v115.53l141.52-141.52-141.52-141.52z" fill="url(#f)"/>
  <path d="m795.61 279.41 67.008 66.993-41.074 41.074c26.961 20.328 44.23 52.647 44.23 89.428 0 48.051-29.47 88.512-71.524 104.54v-115.55l-141.52 141.52 141.52 141.52v-74.226c91.812-18.87 161.51-100.65 161.51-197.79 0-96.667-69.01-178.1-160.15-197.49z" fill="url(#g)"/>
  <path d="m709.47 196.89v74.226c-91.82 18.86-161.51 100.64-161.51 197.79 0 96.668 69.012 178.12 160.15 197.51l-67.008-67.008 41.058-41.058c-26.951-20.333-44.214-52.667-44.214-89.444 0-48.051 29.471-88.501 71.524-104.52v115.53l141.52-141.52-141.52-141.52z" fill="url(#d)" opacity=".156"/>
  <path d="m791.61 271.41 67.008 66.993-41.074 41.074c26.961 20.328 44.23 52.647 44.23 89.428 0 48.051-29.47 88.512-71.524 104.54v-115.55l-141.52 141.52 141.52 141.52v-74.226c91.812-18.87 161.51-100.65 161.51-197.79 0-96.667-69.01-178.1-160.15-197.49z" fill="url(#e)" opacity=".156"/>
 </g>
</svg>
